<svg xmlns="http://www.w3.org/2000/svg" viewBox="0 0 64 64" width="64" height="64">
  <!-- Ears -->
  <ellipse cx="16" cy="14" rx="12" ry="16" fill="#8B5E3C" transform="rotate(-15 16 14)"/>
  <ellipse cx="48" cy="14" rx="12" ry="16" fill="#8B5E3C" transform="rotate(15 48 14)"/>
  <ellipse cx="16" cy="14" rx="8" ry="11" fill="#D4956B" transform="rotate(-15 16 14)"/>
  <ellipse cx="48" cy="14" rx="8" ry="11" fill="#D4956B" transform="rotate(15 48 14)"/>
  <!-- Head -->
  <circle cx="32" cy="32" r="22" fill="#A0714F"/>
  <!-- Snout -->
  <ellipse cx="32" cy="40" rx="14" ry="10" fill="#D4956B"/>
  <!-- Nose -->
  <ellipse cx="32" cy="37" rx="5" ry="3.5" fill="#3D2B1F"/>
  <!-- Nose highlight -->
  <ellipse cx="30.5" cy="36" rx="1.5" ry="1" fill="#5C4033" opacity="0.5"/>
  <!-- Eyes -->
  <circle cx="23" cy="28" r="4" fill="#3D2B1F"/>
  <circle cx="41" cy="28" r="4" fill="#3D2B1F"/>
  <circle cx="24" cy="27" r="1.5" fill="white"/>
  <circle cx="42" cy="27" r="1.5" fill="white"/>
  <!-- Mouth -->
  <path d="M28 42 Q32 46 36 42" stroke="#3D2B1F" stroke-width="1.5" fill="none" stroke-linecap="round"/>
  <line x1="32" y1="40" x2="32" y2="43" stroke="#3D2B1F" stroke-width="1.5" stroke-linecap="round"/>
  <!-- Tongue -->
  <ellipse cx="34" cy="45" rx="3" ry="4" fill="#E8828A"/>
</svg>
